<?xml version="1.0" encoding="UTF-8" standalone="no"?>
<!-- Created with Inkscape (http://www.inkscape.org/) -->

<svg
   xmlns:dc="http://purl.org/dc/elements/1.1/"
   xmlns:cc="http://creativecommons.org/ns#"
   xmlns:rdf="http://www.w3.org/1999/02/22-rdf-syntax-ns#"
   xmlns:svg="http://www.w3.org/2000/svg"
   xmlns="http://www.w3.org/2000/svg"
   xmlns:sodipodi="http://sodipodi.sourceforge.net/DTD/sodipodi-0.dtd"
   xmlns:inkscape="http://www.inkscape.org/namespaces/inkscape"
   width="46.539272"
   height="30"
   id="svg4520"
   version="1.1"
   inkscape:version="0.48.3.1 r9886"
   sodipodi:docname="gfz.svg">
  <defs
     id="defs4522" />
  <sodipodi:namedview
     id="base"
     pagecolor="#ffffff"
     bordercolor="#666666"
     borderopacity="1.0"
     inkscape:pageopacity="0.0"
     inkscape:pageshadow="2"
     inkscape:zoom="1.4"
     inkscape:cx="157.92683"
     inkscape:cy="73.938124"
     inkscape:document-units="px"
     inkscape:current-layer="layer1"
     showgrid="false"
     inkscape:window-width="1360"
     inkscape:window-height="720"
     inkscape:window-x="0"
     inkscape:window-y="0"
     inkscape:window-maximized="0"
     fit-margin-top="0"
     fit-margin-left="0"
     fit-margin-right="0"
     fit-margin-bottom="0" />
  <metadata
     id="metadata4525">
    <rdf:RDF>
      <cc:Work
         rdf:about="">
        <dc:format>image/svg+xml</dc:format>
        <dc:type
           rdf:resource="http://purl.org/dc/dcmitype/StillImage" />
        <dc:title></dc:title>
      </cc:Work>
    </rdf:RDF>
  </metadata>
  <g
     inkscape:label="Layer 1"
     inkscape:groupmode="layer"
     id="layer1"
     transform="translate(-1.7542444,-1020.7348)">
    <g
       id="g4222"
       transform="matrix(0.38811835,0,0,0.38811835,-19.670815,651.60134)">
      <path
         id="path4057"
         d="m 85.181387,951.08469 c -3.735,0 -6.678,0.526 -9.564,1.717 -5.489,2.278 -8.206,5.923 -8.206,11.074 0,3.645 1.302,6.238 4.188,8.516 3.169,2.523 7.527,3.715 13.413,3.715 4.641,0 9.055,-0.701 13.073,-2.173 v -11.634 h -15.225 l 1.019,3.995 h 5.999 v 5.537 c -1.302,0.42 -2.716,0.596 -4.471,0.596 -2.547,0 -4.698,-0.491 -6.169,-1.367 -1.98,-1.227 -2.943,-3.47 -2.943,-6.939 0,-3.645 0.679,-6.273 3.339,-7.85 1.358,-0.806 3.339,-1.227 5.66,-1.227 3,0 5.659,0.596 8.206,1.892 l 4.188,-3.049 c -3.453,-1.857 -7.754,-2.803 -12.507,-2.803 l 0,0 0,0 z"
         clip-rule="evenodd"
         inkscape:connector-curvature="0"
         style="fill-rule:evenodd" />
      <polygon
         transform="translate(55.202387,948.08469)"
         id="polygon4059"
         points="61.252,16.983 71.269,16.983 71.269,12.988 61.252,12.988 61.252,7.416 73.759,7.416 74.664,3.456 53.328,3.456 53.328,27.742 53.328,27.742 53.328,27.742 61.252,27.742 "
         clip-rule="evenodd"
         style="fill-rule:evenodd" />
      <path
         id="path4061"
         d="m 138.51639,955.53569 h 12.111 c 2.377,0 4.019,-0.175 4.019,-0.175 0,0 -1.358,1.086 -2.435,2.208 l -14.487,14.824 v 3.435 h 24.562 l 2.037,-3.995 h -13.243 c -1.584,0 -3.904,0.14 -3.904,0.14 0,0 1.188,-0.841 2.037,-1.717 l 14.602,-15.245 v -3.54 h -23.544 l -1.755,4.065 0,0 0,0 z"
         clip-rule="evenodd"
         inkscape:connector-curvature="0"
         style="fill-rule:evenodd" />
      <path
         id="path4063"
         d="m 175.11239,1002.0357 c -36.653,-8.95101 -83.484003,-8.80501 -119.910003,0.245 30.586,-14.84001 88.878003,-14.98101 119.910003,-0.245 l 0,0 0,0 z"
         clip-rule="evenodd"
         inkscape:connector-curvature="0"
         style="fill:#000000;fill-opacity:1;fill-rule:evenodd" />
      <path
         id="path4065"
         d="m 70.523387,1020.8117 h 1.824 c 0.615,0 1.107,0.127 1.435,0.368 0.328,0.229 0.492,0.546 0.492,0.952 0,0.419 -0.103,0.698 -0.349,0.939 -0.39,0.368 -0.738,0.458 -1.906,0.458 h -1.497 v -2.717 l 0.001,0 0,0 z m -2.87,-1.435 v 8.851 h 2.87 v -3.251 h 1.579 c 1.578,0 2.193,-0.102 2.849,-0.292 1.558,-0.457 2.46,-1.423 2.46,-2.591 0,-1.016 -0.717,-1.828 -2.05,-2.285 -0.8,-0.28 -1.538,-0.432 -3.957,-0.432 h -3.751 l 0,0 0,0 z"
         clip-rule="evenodd"
         inkscape:connector-curvature="0"
         style="fill-rule:evenodd" />
      <path
         id="path4067"
         d="m 88.463387,1024.7477 c 0,1.804 -0.778,2.388 -2.214,2.388 -1.537,0 -2.275,-0.508 -2.275,-2.223 0,-1.55 0.656,-2.375 2.275,-2.375 1.702,0 2.214,0.825 2.214,2.21 l 0,0 0,0 z m 3.137,0 c 0,-2.273 -2.193,-3.416 -5.309,-3.416 -3.321,0 -5.371,1.295 -5.371,3.53 0,2.031 1.968,3.467 5.473,3.467 3.465,0 5.207,-1.447 5.207,-3.581 l 0,0 0,0 z"
         clip-rule="evenodd"
         inkscape:connector-curvature="0"
         style="fill-rule:evenodd" />
      <path
         id="path4069"
         d="m 104.66939,1021.4207 h -8.938003 v 1.346 h 2.85 v 5.461 h 2.808003 v -5.461 h 2.747 c 0,0 0.554,-1.346 0.533,-1.346 l 0,0 0,0 z"
         clip-rule="evenodd"
         inkscape:connector-curvature="0"
         style="fill-rule:evenodd" />
      <path
         id="path4071"
         d="m 117.75139,1025.9917 c 0,-1.041 -1.189,-1.701 -3.116,-1.98 l -1.476,-0.216 c -0.922,-0.127 -1.147,-0.279 -1.147,-0.61 0,-0.381 0.615,-0.622 1.476,-0.622 0.861,0 1.824,0.165 2.87,0.508 l 1.292,-1.181 c -1.025,-0.419 -2.727,-0.698 -4.223,-0.698 -2.645,0 -4.469,0.914 -4.469,2.171 0,0.381 0.144,0.725 0.451,1.055 0.41,0.457 1.21,0.774 2.399,0.965 l 1.394,0.203 c 1.004,0.127 1.435,0.394 1.435,0.762 0,0.471 -0.656,0.673 -1.947,0.673 -1.209,0 -2.132,-0.202 -3.28,-0.508 l -0.902,1.295 c 1.333,0.395 2.706,0.572 4.039,0.572 3.134,-10e-4 5.204,-0.941 5.204,-2.389 l 0,0 0,0 z"
         clip-rule="evenodd"
         inkscape:connector-curvature="0"
         style="fill-rule:evenodd" />
      <path
         id="path4073"
         d="m 129.23239,1025.0267 c 0,1.474 -0.861,1.879 -1.845,1.879 h -1.313 v -4.216 h 1.005 c 1.702,0 2.153,0.852 2.153,2.337 l 0,0 0,0 z m 3.055,-0.139 c 0,-2.058 -1.641,-3.213 -4.325,-3.403 -0.472,-0.038 -1.538,-0.038 -2.256,-0.038 h -2.419 v 6.781 h 2.851 c 0.84,0 1.394,0 1.864,-0.038 2.46,-0.191 4.285,-1.321 4.285,-3.302 l 0,0 0,0 z"
         clip-rule="evenodd"
         inkscape:connector-curvature="0"
         style="fill-rule:evenodd" />
      <path
         id="path4075"
         d="m 142.55939,1025.5227 h -1.988 c 0.328,-0.724 0.8,-1.841 1.024,-2.527 0.206,0.686 0.657,1.816 0.964,2.527 l 0,0 0,0 z m 4.346,2.705 -3.813,-6.845 h -2.788 l -4.059,6.845 h 2.89 l 0.779,-1.448 h 3.26 l 0.84,1.448 h 2.891 l 0,0 0,0 z"
         clip-rule="evenodd"
         inkscape:connector-curvature="0"
         style="fill-rule:evenodd" />
      <path
         id="path4077"
         d="m 163.92539,1028.2277 -1.127,-6.807 h -3.443 l -1.456,3.086 c -0.185,0.394 -0.328,0.8 -0.472,1.219 -0.123,-0.432 -0.246,-0.711 -0.451,-1.155 l -1.394,-3.149 h -3.424 l -1.188,6.807 h 2.768 l 0.349,-3.251 c 0.062,-0.419 0.102,-0.901 0.122,-1.371 0.165,0.546 0.39,1.066 0.533,1.371 l 1.477,3.238 h 2.336 l 1.641,-3.34 c 0.185,-0.355 0.41,-0.724 0.554,-1.117 0.041,0.47 0.082,0.8 0.122,1.155 l 0.369,3.314 h 2.684 l 0,0 0,0 z"
         clip-rule="evenodd"
         inkscape:connector-curvature="0"
         style="fill-rule:evenodd" />
      <polygon
         transform="translate(55.202387,948.08469)"
         id="polygon4079"
         points="12.329,66.93 12.329,59.27 12.329,59.27 13.222,59.27 13.222,62.475 16.449,62.475 16.449,59.27 17.365,59.27 17.365,66.93 16.449,66.93 16.449,63.223 13.222,63.223 13.222,66.93 " />
      <path
         id="path4081"
         d="m 76.026387,1011.7207 h 2.546 c -0.011,-0.603 -0.089,-0.971 -0.257,-1.239 -0.19,-0.302 -0.581,-0.491 -1.005,-0.491 -0.793,-10e-4 -1.239,0.579 -1.284,1.73 l 0,0 z m 3.004,2.166 0.335,0.559 c -0.491,0.447 -1.161,0.692 -1.876,0.692 -1.541,0 -2.468,-1.117 -2.468,-2.959 0,-0.938 0.19,-1.552 0.67,-2.1 0.447,-0.524 0.994,-0.781 1.664,-0.781 0.604,0 1.139,0.212 1.508,0.614 0.48,0.491 0.614,1.016 0.636,2.345 v 0.123 h -3.473 v 0.134 c 0,0.524 0.067,0.927 0.257,1.218 0.313,0.479 0.827,0.681 1.385,0.681 0.536,-10e-4 0.971,-0.169 1.362,-0.526 l 0,0 z"
         inkscape:connector-curvature="0" />
      <path
         id="path4083"
         d="m 81.966387,1007.0757 0.904,-0.179 c 0.145,0.424 0.134,1.05 0.134,1.719 v 5.282 c 0,0.436 0.067,0.558 0.313,0.558 0.033,0 0.112,-0.022 0.112,-0.022 l 0.178,0.569 c -0.224,0.102 -0.324,0.124 -0.558,0.124 -0.279,0 -0.491,-0.079 -0.659,-0.234 -0.201,-0.179 -0.268,-0.392 -0.268,-0.793 v -5.483 c 0,-0.838 -0.023,-1.15 -0.156,-1.541 l 0,0 z"
         inkscape:connector-curvature="0" />
      <path
         id="path4085"
         d="m 85.806387,1009.5217 0.849,-0.201 c 0.112,0.224 0.201,0.547 0.201,0.781 v 0.045 c 0.257,-0.268 0.369,-0.346 0.681,-0.536 0.357,-0.212 0.636,-0.302 0.938,-0.302 0.436,0 0.86,0.224 1.105,0.559 0.079,0.111 0.124,0.179 0.19,0.368 0.536,-0.569 1.217,-0.927 1.787,-0.927 0.826,0 1.396,0.626 1.396,1.508 v 4.198 h -0.893 v -4.11 c 0,-0.535 -0.246,-0.814 -0.714,-0.814 -0.268,0 -0.559,0.111 -0.815,0.301 -0.167,0.124 -0.357,0.279 -0.558,0.47 l -0.101,0.089 v 4.064 h -0.882 v -3.952 c 0,-0.48 -0.011,-0.559 -0.156,-0.715 -0.134,-0.157 -0.313,-0.224 -0.57,-0.224 -0.424,0 -0.837,0.212 -1.418,0.737 v 4.153 h -0.837 v -4.143 c -0.002,-0.769 -0.024,-0.892 -0.203,-1.349 l 0,0 z"
         inkscape:connector-curvature="0" />
      <path
         id="path4087"
         d="m 95.686387,1007.0537 0.871,-0.168 c 0.101,0.369 0.146,0.726 0.146,1.284 v 1.296 c 0,0.212 -0.011,0.469 -0.034,0.759 0.212,-0.201 0.313,-0.279 0.559,-0.436 0.469,-0.313 0.86,-0.446 1.295,-0.446 0.67,0 1.262,0.368 1.429,0.882 0.067,0.224 0.089,0.402 0.089,0.804 v 3.986 H 99.1823 v -3.841 c 0,-0.413 -0.067,-0.658 -0.212,-0.826 -0.134,-0.135 -0.369,-0.224 -0.648,-0.224 -0.536,0 -1.139,0.346 -1.619,0.938 v 3.952 h -0.871 v -6.855 c -0.001,-0.48 -0.034,-0.715 -0.146,-1.105 l 0,0 z"
         inkscape:connector-curvature="0" />
      <path
         id="path4089"
         d="m 105.06539,1010.0457 c -0.492,0 -0.938,0.246 -1.139,0.603 -0.179,0.347 -0.268,0.793 -0.268,1.452 0,0.781 0.134,1.474 0.346,1.82 0.201,0.335 0.647,0.558 1.127,0.558 0.581,0 1.016,-0.302 1.206,-0.837 0.123,-0.347 0.167,-0.659 0.167,-1.206 0,-0.782 -0.078,-1.307 -0.256,-1.675 -0.234,-0.491 -0.726,-0.715 -1.183,-0.715 l 0,0 z m 0.011,-0.715 c 0.926,0 1.529,0.425 1.909,0.972 0.346,0.502 0.514,1.161 0.514,2.065 0,1.084 -0.257,1.765 -0.871,2.301 -0.436,0.379 -0.894,0.535 -1.519,0.535 -1.485,0 -2.4,-1.127 -2.4,-2.959 0,-1.808 0.904,-2.914 2.367,-2.914 l 0,0 z"
         inkscape:connector-curvature="0" />
      <path
         id="path4091"
         d="m 110.07739,1007.0757 0.904,-0.179 c 0.145,0.424 0.134,1.05 0.134,1.719 v 5.282 c 0,0.436 0.067,0.558 0.313,0.558 0.034,0 0.112,-0.022 0.112,-0.022 l 0.179,0.569 c -0.224,0.102 -0.324,0.124 -0.558,0.124 -0.279,0 -0.491,-0.079 -0.659,-0.234 -0.201,-0.179 -0.268,-0.392 -0.268,-0.793 v -5.483 c -0.001,-0.838 -0.023,-1.15 -0.157,-1.541 l 0,0 z"
         inkscape:connector-curvature="0" />
      <path
         id="path4093"
         d="m 116.49739,1009.4427 -0.268,0.681 h -1.173 v 3.573 c 0,0.614 0.167,0.826 0.715,0.826 0.246,0 0.402,-0.033 0.558,-0.111 l 0.123,0.558 c -0.279,0.146 -0.591,0.224 -0.982,0.224 -0.291,0 -0.514,-0.056 -0.726,-0.156 -0.391,-0.189 -0.536,-0.547 -0.536,-1.105 v -3.808 h -0.726 v -0.681 h 0.726 v -0.067 c 0,-0.279 0.022,-0.592 0.078,-1.161 l 0.011,-0.146 0.904,-0.2 c 0,0 -0.112,0.837 -0.112,1.574 h 1.408 l 0,0 z"
         inkscape:connector-curvature="0" />
      <polygon
         transform="translate(55.202387,948.08469)"
         id="polygon4095"
         points="63.036,66.93 63.036,66.26 66.063,62.073 63.271,62.073 63.271,61.381 63.271,61.381 66.978,61.381 66.978,62.095 64.086,66.26 67.156,66.26 66.743,66.93 " />
      <path
         id="path4097"
         d="m 134.33839,1007.8797 -0.492,0.592 c -0.457,-0.335 -0.893,-0.48 -1.451,-0.48 -0.882,0 -1.519,0.458 -1.887,1.317 -0.224,0.514 -0.323,1.128 -0.323,2.032 0,0.737 0.066,1.173 0.245,1.619 0.391,0.961 1.184,1.407 2.055,1.407 0.569,0 1.005,-0.146 1.496,-0.491 l 0.491,0.637 c -0.614,0.401 -1.374,0.625 -2.133,0.625 -1.865,0 -3.148,-1.608 -3.148,-3.931 0,-2.277 1.362,-3.952 3.216,-3.952 0.735,0 1.405,0.223 1.931,0.625 l 0,0 z"
         inkscape:connector-curvature="0" />
      <path
         id="path4099"
         d="m 137.28439,1011.7207 h 2.546 c -0.011,-0.603 -0.089,-0.971 -0.257,-1.239 -0.189,-0.302 -0.58,-0.491 -1.005,-0.491 -0.793,-10e-4 -1.239,0.579 -1.284,1.73 l 0,0 z m 3.004,2.166 0.335,0.559 c -0.491,0.447 -1.161,0.692 -1.876,0.692 -1.541,0 -2.468,-1.117 -2.468,-2.959 0,-0.938 0.19,-1.552 0.671,-2.1 0.446,-0.524 0.993,-0.781 1.663,-0.781 0.603,0 1.14,0.212 1.508,0.614 0.479,0.491 0.614,1.016 0.636,2.345 v 0.123 h -3.473 v 0.134 c 0,0.524 0.067,0.927 0.257,1.218 0.313,0.479 0.827,0.681 1.385,0.681 0.536,-10e-4 0.971,-0.169 1.362,-0.526 l 0,0 z"
         inkscape:connector-curvature="0" />
      <path
         id="path4101"
         d="m 143.17939,1009.5547 0.849,-0.234 c 0.146,0.313 0.201,0.547 0.201,0.87 0.581,-0.58 1.161,-0.859 1.753,-0.859 0.604,0 1.14,0.324 1.362,0.815 0.09,0.201 0.134,0.424 0.134,0.647 v 4.221 h -0.882 v -3.763 c 0,-0.592 -0.033,-0.748 -0.201,-0.927 -0.122,-0.146 -0.357,-0.234 -0.614,-0.234 -0.446,0 -1.139,0.357 -1.541,0.781 v 4.143 h -0.848 v -4.143 c -0.001,-0.77 -0.023,-0.893 -0.213,-1.317 l 0,0 z"
         inkscape:connector-curvature="0" />
      <path
         id="path4103"
         d="m 152.84839,1009.4427 -0.268,0.681 h -1.173 v 3.573 c 0,0.614 0.168,0.826 0.715,0.826 0.245,0 0.402,-0.033 0.559,-0.111 l 0.122,0.558 c -0.278,0.146 -0.592,0.224 -0.982,0.224 -0.29,0 -0.514,-0.056 -0.726,-0.156 -0.391,-0.189 -0.536,-0.547 -0.536,-1.105 v -3.808 h -0.726 v -0.681 h 0.726 v -0.067 c 0,-0.279 0.022,-0.592 0.078,-1.161 l 0.012,-0.146 0.904,-0.2 c 0,0 -0.112,0.837 -0.112,1.574 h 1.407 l 0,0 z"
         inkscape:connector-curvature="0" />
      <path
         id="path4105"
         d="m 155.01339,1009.5437 0.871,-0.235 c 0.135,0.29 0.19,0.458 0.19,0.827 v 0.077 c 0.402,-0.569 0.994,-0.927 1.563,-0.927 0.146,0 0.302,0.057 0.302,0.057 l -0.357,0.949 c -0.111,-0.034 -0.145,-0.045 -0.245,-0.045 -0.335,0 -0.67,0.145 -0.927,0.401 -0.257,0.256 -0.324,0.425 -0.324,0.883 v 3.483 h -0.871 v -4.243 c -0.001,-0.635 -0.046,-0.871 -0.202,-1.227 l 0,0 z"
         inkscape:connector-curvature="0" />
      <path
         id="path4107"
         d="m 160.38439,1011.7207 h 2.545 c -0.011,-0.603 -0.089,-0.971 -0.256,-1.239 -0.19,-0.302 -0.581,-0.491 -1.005,-0.491 -0.793,-10e-4 -1.24,0.579 -1.284,1.73 l 0,0 z m 3.003,2.166 0.335,0.559 c -0.491,0.447 -1.161,0.692 -1.875,0.692 -1.541,0 -2.469,-1.117 -2.469,-2.959 0,-0.938 0.19,-1.552 0.671,-2.1 0.446,-0.524 0.993,-0.781 1.663,-0.781 0.604,0 1.14,0.212 1.508,0.614 0.48,0.491 0.614,1.016 0.637,2.345 v 0.123 h -3.473 v 0.134 c 0,0.524 0.066,0.927 0.256,1.218 0.313,0.479 0.827,0.681 1.385,0.681 0.535,-10e-4 0.971,-0.169 1.362,-0.526 l 0,0 z"
         inkscape:connector-curvature="0" />
    </g>
  </g>
</svg>
